:FULLY-SPECIFIED
:FORCE-ALL-JOINTS-BE-3DOF
:DEGREES
2242
root -0.718193 13.8226 -16.5776 911.504 -26.7285 168.755
lfemur 11.1202 -1.28422 -15.1703
ltibia 32.6677 0 0
lfoot -23.8019 36.6699 0
ltoes -43.7219 0 0
rfemur -71.8677 -23.6326 9.03348
rtibia 73.8406 0 0
rfoot -6.60166 14.1709 0
rtoes 3.90308 0 0
lowerback 9.54362 1.84851 -13.2253
upperback -3.01383 0.426617 -1.96351
thorax -8.82184 0.788972 5.24744
lowerneck 0.956502 -12.0659 -12.384
upperneck 4.94629 -16.7966 10.2875
head 3.22674 -8.43793 4.35338
lclavicle -1.95625e-14 9.1086e-15 0
lhumerus -69.5759 -17.8264 103.946
lradius 102.115 0 0
lwrist 60.8565 0 0
lhand -11.7643 421.648 0
lfingers 7.12502 0 0
lthumb 14.2841 -451.136 0
rclavicle -1.95625e-14 9.1086e-15 0
rhumerus 49.0769 -9.79832 -58.5664
rradius 16.9658 0 0
rwrist 34.5731 0 0
rhand -19.5805 -402.605 0
rfingers 7.12502 0 0
rthumb 6.74484 287.523 0
2243
root -0.724231 13.8137 -16.5982 911.608 -26.59 168.728
lfemur 11.2806 -1.23446 -15.2204
ltibia 32.4002 0 0
lfoot -23.7275 36.712 0
ltoes -43.9432 0 0
rfemur -72.0962 -23.6256 9.09739
rtibia 74.0423 0 0
rfoot -6.71843 14.2411 0
rtoes 4.03046 0 0
lowerback 9.39296 1.86906 -13.2862
upperback -3.02542 0.463767 -1.98963
thorax -8.75542 0.804632 5.24675
lowerneck 0.932399 -12.0801 -12.3699
upperneck 4.92821 -16.8129 10.3104
head 3.22789 -8.44451 4.35565
lclavicle -1.66293e-14 1.25518e-14 0
lhumerus -69.5559 -17.876 103.962
lradius 102.076 0 0
lwrist 60.8791 0 0
lhand -11.7097 421.643 0
lfingers 7.12502 0 0
lthumb 14.3367 -451.128 0
rclavicle -1.66293e-14 1.25518e-14 0
rhumerus 49.0871 -9.7904 -58.6
rradius 16.9573 0 0
rwrist 34.5488 0 0
rhand -19.5969 -402.59 0
rfingers 7.12502 0 0
rthumb 6.72892 287.538 0
2244
root -0.730268 13.8049 -16.6188 911.713 -26.4515 168.701
lfemur 11.441 -1.1847 -15.2704
ltibia 32.1327 0 0
lfoot -23.6531 36.7541 0
ltoes -44.1645 0 0
rfemur -72.3248 -23.6186 9.16131
rtibia 74.244 0 0
rfoot -6.8352 14.3112 0
rtoes 4.15783 0 0
lowerback 9.2423 1.88961 -13.3471
upperback -3.03702 0.500917 -2.01576
thorax -8.68901 0.820292 5.24606
lowerneck 0.908296 -12.0944 -12.3558
upperneck 4.91013 -16.8293 10.3332
head 3.22903 -8.45108 4.35792
lclavicle -1.3696e-14 1.59951e-14 0
lhumerus -69.5358 -17.9256 103.977
lradius 102.037 0 0
lwrist 60.9018 0 0
lhand -11.6551 421.638 0
lfingers 7.12502 0 0
lthumb 14.3893 -451.119 0
rclavicle -1.3696e-14 1.59951e-14 0
rhumerus 49.0973 -9.78248 -58.6336
rradius 16.9489 0 0
rwrist 34.5244 0 0
rhand -19.6134 -402.574 0
rfingers 7.12502 0 0
rthumb 6.713 287.553 0
2245
root -0.736306 13.796 -16.6394 911.818 -26.3131 168.674
lfemur 11.6014 -1.13493 -15.3204
ltibia 31.8652 0 0
lfoot -23.5787 36.7962 0
ltoes -44.3859 0 0
rfemur -72.5533 -23.6117 9.22522
rtibia 74.4457 0 0
rfoot -6.95197 14.3814 0
rtoes 4.28521 0 0
lowerback 9.09165 1.91016 -13.4081
upperback -3.04861 0.538067 -2.04189
thorax -8.6226 0.835952 5.24537
lowerneck 0.884193 -12.1086 -12.3416
upperneck 4.89205 -16.8456 10.3561
head 3.23017 -8.45766 4.36019
lclavicle -1.07628e-14 1.94383e-14 0
lhumerus -69.5157 -17.9752 103.993
lradius 101.999 0 0
lwrist 60.9244 0 0
lhand -11.6005 421.633 0
lfingers 7.12502 0 0
lthumb 14.4419 -451.11 0
rclavicle -1.07628e-14 1.94383e-14 0
rhumerus 49.1076 -9.77457 -58.6672
rradius 16.9405 0 0
rwrist 34.5001 0 0
rhand -19.6299 -402.558 0
rfingers 7.12502 0 0
rthumb 6.69708 287.568 0
2246
root -0.742343 13.7872 -16.66 911.923 -26.1746 168.648
lfemur 11.7618 -1.08517 -15.3704
ltibia 31.5978 0 0
lfoot -23.5043 36.8383 0
ltoes -44.6072 0 0
rfemur -72.7819 -23.6047 9.28913
rtibia 74.6473 0 0
rfoot -7.06874 14.4515 0
rtoes 4.41258 0 0
lowerback 8.94099 1.93071 -13.469
upperback -3.06021 0.575218 -2.06802
thorax -8.55619 0.851612 5.24467
lowerneck 0.860089 -12.1229 -12.3275
upperneck 4.87397 -16.862 10.379
head 3.23131 -8.46423 4.36245
lclavicle -7.82951e-15 2.28815e-14 0
lhumerus -69.4956 -18.0248 104.008
lradius 101.96 0 0
lwrist 60.9471 0 0
lhand -11.546 421.627 0
lfingers 7.12502 0 0
lthumb 14.4945 -451.101 0
rclavicle -7.82951e-15 2.28815e-14 0
rhumerus 49.1178 -9.76665 -58.7009
rradius 16.9321 0 0
rwrist 34.4757 0 0
rhand -19.6464 -402.542 0
rfingers 7.12502 0 0
rthumb 6.68116 287.584 0
2247
root -0.748381 13.7783 -16.6806 912.027 -26.0362 168.621
lfemur 11.9222 -1.03541 -15.4205
ltibia 31.3303 0 0
lfoot -23.4299 36.8804 0
ltoes -44.8286 0 0
rfemur -73.0104 -23.5977 9.35305
rtibia 74.849 0 0
rfoot -7.18551 14.5217 0
rtoes 4.53996 0 0
lowerback 8.79033 1.95126 -13.5299
upperback -3.0718 0.612368 -2.09414
thorax -8.48977 0.867272 5.24398
lowerneck 0.835986 -12.1371 -12.3134
upperneck 4.85589 -16.8783 10.4019
head 3.23245 -8.47081 4.36472
lclavicle -4.89626e-15 2.63248e-14 0
lhumerus -69.4755 -18.0744 104.024
lradius 101.922 0 0
lwrist 60.9697 0 0
lhand -11.4914 421.622 0
lfingers 7.12502 0 0
lthumb 14.5471 -451.092 0
rclavicle -4.89626e-15 2.63248e-14 0
rhumerus 49.1281 -9.75873 -58.7345
rradius 16.9237 0 0
rwrist 34.4514 0 0
rhand -19.6629 -402.527 0
rfingers 7.12502 0 0
rthumb 6.66524 287.599 0
2248
root -0.754418 13.7695 -16.7012 912.132 -25.8977 168.594
lfemur 12.0826 -0.985646 -15.4705
ltibia 31.0628 0 0
lfoot -23.3555 36.9225 0
ltoes -45.0499 0 0
rfemur -73.239 -23.5907 9.41696
rtibia 75.0507 0 0
rfoot -7.30228 14.5918 0
rtoes 4.66733 0 0
lowerback 8.63967 1.97181 -13.5908
upperback -3.0834 0.649518 -2.12027
thorax -8.42336 0.882932 5.24329
lowerneck 0.811883 -12.1514 -12.2993
upperneck 4.83781 -16.8947 10.4248
head 3.23359 -8.47738 4.36699
lclavicle -1.963e-15 2.9768e-14 0
lhumerus -69.4554 -18.124 104.039
lradius 101.883 0 0
lwrist 60.9924 0 0
lhand -11.4368 421.617 0
lfingers 7.12502 0 0
lthumb 14.5997 -451.083 0
rclavicle -1.963e-15 2.9768e-14 0
rhumerus 49.1383 -9.75081 -58.7681
rradius 16.9153 0 0
rwrist 34.427 0 0
rhand -19.6794 -402.511 0
rfingers 7.12502 0 0
rthumb 6.64932 287.614 0
2249
root -0.756687 13.767 -16.7058 912.168 -25.9084 168.573
lfemur 12.0942 -0.969214 -15.4655
ltibia 31.0176 0 0
lfoot -23.3309 36.9003 0
ltoes -45.1167 0 0
rfemur -73.2829 -23.6099 9.40138
rtibia 75.1093 0 0
rfoot -7.33776 14.5712 0
rtoes 4.62992 0 0
lowerback 8.6329 1.97442 -13.6245
upperback -3.08682 0.648642 -2.12394
thorax -8.42432 0.883996 5.25808
lowerneck 0.812261 -12.1548 -12.2925
upperneck 4.81117 -16.8963 10.4246
head 3.22516 -8.47788 4.36672
lclavicle 3.08233e-16 3.02697e-14 0
lhumerus -69.4646 -18.1411 104.05
lradius 101.88 0 0
lwrist 61.07 0 0
lhand -11.5153 421.282 0
lfingers 7.12502 0 0
lthumb 14.524 -442.738 0
rclavicle 3.08233e-16 3.02697e-14 0
rhumerus 49.1418 -9.75729 -58.7334
rradius 16.9248 0 0
rwrist 34.3933 0 0
rhand -19.6748 -402.51 0
rfingers 7.12502 0 0
rthumb 6.65376 287.615 0
2250
root -0.758956 13.7645 -16.7105 912.205 -25.9191 168.552
lfemur 12.1059 -0.952782 -15.4606
ltibia 30.9725 0 0
lfoot -23.3062 36.8782 0
ltoes -45.1835 0 0
rfemur -73.3268 -23.6291 9.3858
rtibia 75.1679 0 0
rfoot -7.37325 14.5507 0
rtoes 4.59251 0 0
lowerback 8.62614 1.97703 -13.6583
upperback -3.09025 0.647765 -2.12762
thorax -8.42528 0.88506 5.27287
lowerneck 0.812638 -12.1581 -12.2858
upperneck 4.78453 -16.8978 10.4243
head 3.21672 -8.47837 4.36645
lclavicle 2.57947e-15 3.07714e-14 0
lhumerus -69.4739 -18.1583 104.061
lradius 101.877 0 0
lwrist 61.1477 0 0
lhand -11.5938 420.948 0
lfingers 7.12502 0 0
lthumb 14.4483 -434.393 0
rclavicle 2.57947e-15 3.07714e-14 0
rhumerus 49.1454 -9.76377 -58.6988
rradius 16.9342 0 0
rwrist 34.3595 0 0
rhand -19.6702 -402.508 0
rfingers 7.12502 0 0
rthumb 6.6582 287.617 0
2251
root -0.761224 13.7619 -16.7151 912.241 -25.9299 168.532
lfemur 12.1175 -0.93635 -15.4556
ltibia 30.9273 0 0
lfoot -23.2816 36.856 0
ltoes -45.2503 0 0
rfemur -73.3707 -23.6484 9.37022
rtibia 75.2265 0 0
rfoot -7.40873 14.5301 0
rtoes 4.5551 0 0
lowerback 8.61937 1.97964 -13.692
upperback -3.09367 0.646889 -2.13129
thorax -8.42624 0.886125 5.28766
lowerneck 0.813016 -12.1615 -12.279
upperneck 4.75789 -16.8994 10.4241
head 3.20829 -8.47887 4.36619
lclavicle 4.8507e-15 3.12731e-14 0
lhumerus -69.4831 -18.1754 104.072
lradius 101.875 0 0
lwrist 61.2253 0 0
lhand -11.6724 420.613 0
lfingers 7.12502 0 0
lthumb 14.3727 -426.048 0
rclavicle 4.8507e-15 3.12731e-14 0
rhumerus 49.1489 -9.77025 -58.6641
rradius 16.9437 0 0
rwrist 34.3258 0 0
rhand -19.6656 -402.507 0
rfingers 7.12502 0 0
rthumb 6.66264 287.618 0
2252
root -0.763493 13.7594 -16.7198 912.277 -25.9406 168.511
lfemur 12.1292 -0.919918 -15.4507
ltibia 30.8821 0 0
lfoot -23.2569 36.8339 0
ltoes -45.3171 0 0
rfemur -73.4146 -23.6676 9.35465
rtibia 75.2851 0 0
rfoot -7.44421 14.5095 0
rtoes 4.51769 0 0
lowerback 8.61261 1.98225 -13.7257
upperback -3.0971 0.646013 -2.13496
thorax -8.42719 0.887189 5.30245
lowerneck 0.813393 -12.1649 -12.2722
upperneck 4.73125 -16.9009 10.4239
head 3.19985 -8.47936 4.36592
lclavicle 7.12193e-15 3.17748e-14 0
lhumerus -69.4924 -18.1925 104.083
lradius 101.872 0 0
lwrist 61.3029 0 0
lhand -11.7509 420.278 0
lfingers 7.12502 0 0
lthumb 14.297 -417.703 0
rclavicle 7.12193e-15 3.17748e-14 0
rhumerus 49.1524 -9.77673 -58.6294
rradius 16.9531 0 0
rwrist 34.292 0 0
rhand -19.661 -402.506 0
rfingers 7.12502 0 0
rthumb 6.66708 287.62 0
2253
root -0.765762 13.7569 -16.7244 912.314 -25.9513 168.49
lfemur 12.1408 -0.903486 -15.4457
ltibia 30.837 0 0
lfoot -23.2323 36.8117 0
ltoes -45.3839 0 0
rfemur -73.4585 -23.6868 9.33907
rtibia 75.3437 0 0
rfoot -7.47969 14.489 0
rtoes 4.48028 0 0
lowerback 8.60584 1.98486 -13.7595
upperback -3.10052 0.645136 -2.13864
thorax -8.42815 0.888253 5.31724
lowerneck 0.813771 -12.1682 -12.2654
upperneck 4.70461 -16.9025 10.4236
head 3.19142 -8.47986 4.36565
lclavicle 9.39317e-15 3.22765e-14 0
lhumerus -69.5016 -18.2096 104.094
lradius 101.869 0 0
lwrist 61.3805 0 0
lhand -11.8294 419.944 0
lfingers 7.12502 0 0
lthumb 14.2213 -409.358 0
rclavicle 9.39317e-15 3.22765e-14 0
rhumerus 49.1559 -9.78321 -58.5948
rradius 16.9626 0 0
rwrist 34.2583 0 0
rhand -19.6564 -402.505 0
rfingers 7.12502 0 0
rthumb 6.67152 287.621 0
